<svg width="1200" height="630" viewBox="0 0 1200 630" fill="none" xmlns="http://www.w3.org/2000/svg">
  <rect width="1200" height="630" rx="36" fill="#F5F7FB"/>
  <rect x="42" y="42" width="1116" height="546" rx="32" fill="white" stroke="#DCE7F5" stroke-width="2"/>
  <circle cx="150" cy="148" r="54" fill="#F9FBFF" stroke="#DCE7F5" stroke-width="2"/>
  <text x="230" y="136" fill="#0B2F78" font-family="Arial, Helvetica, sans-serif" font-size="56" font-weight="700">Pace</text>
  <text x="370" y="136" fill="#79C814" font-family="Arial, Helvetica, sans-serif" font-size="56" font-weight="700">Setter</text>
  <text x="230" y="188" fill="#526786" font-family="Arial, Helvetica, sans-serif" font-size="30" font-weight="600">Cleaning Service</text>
  <rect x="92" y="252" width="462" height="54" rx="27" fill="#F9FBFF" stroke="#DCE7F5" stroke-width="2"/>
  <text x="122" y="288" fill="#526786" font-family="Arial, Helvetica, sans-serif" font-size="24" font-style="italic">Professional cleaning for homes, offices, and commercial spaces</text>
  <text x="92" y="380" fill="#0B2F78" font-family="Arial, Helvetica, sans-serif" font-size="76" font-weight="700">We Don’t Just Clean,</text>
  <text x="92" y="462" fill="#79C814" font-family="Arial, Helvetica, sans-serif" font-size="76" font-weight="700">We Restore</text>
  <text x="92" y="530" fill="#526786" font-family="Arial, Helvetica, sans-serif" font-size="28">Residential cleaning • Office cleaning • Commercial cleaning • End of tenancy</text>
  <rect x="864" y="108" width="220" height="58" rx="29" fill="#79C814"/>
  <text x="912" y="146" fill="white" font-family="Arial, Helvetica, sans-serif" font-size="28" font-weight="700">Get a Quote</text>
  <rect x="720" y="224" width="360" height="252" rx="28" fill="#F9FBFF" stroke="#DCE7F5" stroke-width="2"/>
  <rect x="756" y="264" width="288" height="30" rx="15" fill="#0B2F78" opacity="0.08"/>
  <rect x="756" y="316" width="220" height="20" rx="10" fill="#79C814" opacity="0.24"/>
  <rect x="756" y="360" width="252" height="20" rx="10" fill="#0B2F78" opacity="0.1"/>
  <rect x="756" y="404" width="202" height="20" rx="10" fill="#0B2F78" opacity="0.1"/>
  <rect x="756" y="452" width="160" height="42" rx="21" fill="#79C814"/>
  <text x="788" y="480" fill="white" font-family="Arial, Helvetica, sans-serif" font-size="21" font-weight="700">Book Today</text>
</svg>
